<svg xmlns="http://www.w3.org/2000/svg" viewBox="0 0 96 96" role="img" aria-label="StudentRex dinosaur mark">
  <rect width="96" height="96" rx="24" fill="#0b315d"/>
  <path d="M20 60c0-23 15-39 38-39 11 0 19 3 25 9l-11 9c-4-3-9-5-15-5-9 0-16 4-20 11h25l9 9-9 9H37c4 7 11 11 21 11 8 0 14-2 20-7l6 12c-7 6-17 9-28 9-22 0-36-15-36-38Z" fill="#5ec2f2"/>
  <circle cx="58" cy="40" r="4" fill="#071d38"/>
  <path d="M22 23 51 9l29 14-29 13Z" fill="#f3b543"/><path d="M72 22v16" stroke="#f3b543" stroke-width="5" stroke-linecap="round"/>
</svg>
